<svg xmlns="http://www.w3.org/2000/svg" xmlns:xlink="http://www.w3.org/1999/xlink" width="209" height="54" version="1.1" viewBox="0 0 209 54"><title>Boss Icon</title><desc>Created with Sketch.</desc><g id="Confirmation" fill="none" fill-rule="evenodd" stroke="none" stroke-width="1"><g id="V7_current" transform="translate(-615.000000, -408.000000)"><g id="Boss-Icon" transform="translate(606.000000, 395.000000)"><g id="Group-Copy-4" transform="translate(148.000000, 0.000000)"><polygon id="Shape" points="0 0 79.552 0 79.552 79.552 0 79.552"/><path id="Shape" fill="#48B7AB" d="M66.2934699,13.258694 L13.258694,13.258694 L13.258694,19.888041 L66.2934699,19.888041 L66.2934699,13.258694 L66.2934699,13.258694 Z M69.6081434,46.405429 L69.6081434,39.776082 L66.2934699,23.2027145 L13.258694,23.2027145 L9.94402049,39.776082 L9.94402049,46.405429 L13.258694,46.405429 L13.258694,66.2934699 L46.405429,66.2934699 L46.405429,46.405429 L59.664123,46.405429 L59.664123,66.2934699 L66.2934699,66.2934699 L66.2934699,46.405429 L69.6081434,46.405429 L69.6081434,46.405429 Z M39.776082,59.664123 L19.888041,59.664123 L19.888041,46.405429 L39.776082,46.405429 L39.776082,59.664123 L39.776082,59.664123 Z"/></g><g id="Group-Copy-2"><polygon id="Shape" points="0 0 79.552 0 79.552 79.552 0 79.552"/><path id="Shape" fill="#48B7AB" d="M66.2934699,13.258694 L13.258694,13.258694 L13.258694,19.888041 L66.2934699,19.888041 L66.2934699,13.258694 L66.2934699,13.258694 Z M69.6081434,46.405429 L69.6081434,39.776082 L66.2934699,23.2027145 L13.258694,23.2027145 L9.94402049,39.776082 L9.94402049,46.405429 L13.258694,46.405429 L13.258694,66.2934699 L46.405429,66.2934699 L46.405429,46.405429 L59.664123,46.405429 L59.664123,66.2934699 L66.2934699,66.2934699 L66.2934699,46.405429 L69.6081434,46.405429 L69.6081434,46.405429 Z M39.776082,59.664123 L19.888041,59.664123 L19.888041,46.405429 L39.776082,46.405429 L39.776082,59.664123 L39.776082,59.664123 Z"/></g><g id="Group" transform="translate(74.000000, 0.000000)"><polygon id="Shape" points="0 0 79.552 0 79.552 79.552 0 79.552"/><path id="Shape" fill="#7F757D" d="M66.2934699,13.258694 L13.258694,13.258694 L13.258694,19.888041 L66.2934699,19.888041 L66.2934699,13.258694 L66.2934699,13.258694 Z M69.6081434,46.405429 L69.6081434,39.776082 L66.2934699,23.2027145 L13.258694,23.2027145 L9.94402049,39.776082 L9.94402049,46.405429 L13.258694,46.405429 L13.258694,66.2934699 L46.405429,66.2934699 L46.405429,46.405429 L59.664123,46.405429 L59.664123,66.2934699 L66.2934699,66.2934699 L66.2934699,46.405429 L69.6081434,46.405429 L69.6081434,46.405429 Z M39.776082,59.664123 L19.888041,59.664123 L19.888041,46.405429 L39.776082,46.405429 L39.776082,59.664123 L39.776082,59.664123 Z"/></g></g></g></g></svg>