<svg xmlns="http://www.w3.org/2000/svg" xmlns:xlink="http://www.w3.org/1999/xlink" id="Layer_1" width="453.883" height="388.35" x="0" y="0" enable-background="new -2.723 -20.874 453.883 388.35" version="1.1" viewBox="-2.723 -20.874 453.883 388.35" xml:space="preserve"><path fill="#EEE" d="M451.16,363.476c0,2.209-1.791,4-4,4H1.277c-2.209,0-4-1.791-4-4v-380.35c0-2.209,1.791-4,4-4H447.16	c2.209,0,4,1.791,4,4V363.476z"/><rect width="448.438" height="364.762" y="0" fill="#FFF"/><circle cx="11.354" cy="-11.057" r="3.717" fill="#D8D8D8"/><circle cx="25.881" cy="-11.057" r="3.717" fill="#D8D8D8"/><circle cx="40.408" cy="-11.057" r="3.717" fill="#D8D8D8"/><g><rect width="9.957" height="1.84" x="54.358" y="-11.977" fill="#D3D3D3"/><polygon fill="#D3D3D3" points="57.51 -6.603 53.057 -11.057 57.511 -15.51 58.812 -14.209 55.66 -11.057 58.811 -7.905"/></g><g><rect width="9.957" height="1.84" x="70.396" y="-11.977" fill="#D3D3D3"/><polygon fill="#D3D3D3" points="77.201 -6.603 75.899 -7.905 79.051 -11.057 75.899 -14.209 77.201 -15.51 81.654 -11.057"/></g><path fill="#FFF" d="M441.892-7.579c0,1.016-0.824,1.84-1.84,1.84H90.942c-1.016,0-1.84-0.824-1.84-1.84v-6.956	c0-1.016,0.825-1.84,1.84-1.84h349.11c1.016,0,1.84,0.824,1.84,1.84V-7.579z"/><line x1="27.466" x2="27.466" y1="0" y2="367.476" fill="none" stroke="#F5F5F5" stroke-miterlimit="10"/><line x1="57.002" x2="57.002" y1="0" y2="367.476" fill="none" stroke="#F5F5F5" stroke-miterlimit="10"/><line x1="86.538" x2="86.538" y1="0" y2="367.476" fill="none" stroke="#F5F5F5" stroke-miterlimit="10"/><line x1="116.074" x2="116.074" y1="0" y2="367.476" fill="none" stroke="#F5F5F5" stroke-miterlimit="10"/><line x1="145.61" x2="145.61" y1="0" y2="367.476" fill="none" stroke="#F5F5F5" stroke-miterlimit="10"/><line x1="175.146" x2="175.146" y1="0" y2="367.476" fill="none" stroke="#F5F5F5" stroke-miterlimit="10"/><line x1="204.683" x2="204.683" y1="0" y2="367.476" fill="none" stroke="#F5F5F5" stroke-miterlimit="10"/><line x1="234.219" x2="234.219" y1="0" y2="367.476" fill="none" stroke="#F5F5F5" stroke-miterlimit="10"/><line x1="263.755" x2="263.755" y1="0" y2="367.476" fill="none" stroke="#F5F5F5" stroke-miterlimit="10"/><line x1="293.291" x2="293.291" y1="0" y2="367.476" fill="none" stroke="#F5F5F5" stroke-miterlimit="10"/><line x1="322.827" x2="322.827" y1="0" y2="367.476" fill="none" stroke="#F5F5F5" stroke-miterlimit="10"/><line x1="352.363" x2="352.363" y1="0" y2="367.476" fill="none" stroke="#F5F5F5" stroke-miterlimit="10"/><line x1="381.899" x2="381.899" y1="0" y2="367.476" fill="none" stroke="#F5F5F5" stroke-miterlimit="10"/><line x1="411.436" x2="411.436" y1="0" y2="367.476" fill="none" stroke="#F5F5F5" stroke-miterlimit="10"/><line x1="440.972" x2="440.972" y1="0" y2="367.476" fill="none" stroke="#F5F5F5" stroke-miterlimit="10"/></svg>